<mxfile host="app.diagrams.net" modified="2023-08-21T07:27:00.258Z" agent="Mozilla/5.0 (Windows NT 10.0; Win64; x64) AppleWebKit/537.36 (KHTML, like Gecko) Chrome/115.0.0.0 Safari/537.36 Edg/115.0.1901.203" etag="GxmQpzNLJo0a0qRT3wPb" version="21.6.8" type="github" pages="3">
  <diagram name="Page-1" id="8QQtbcCOzEE3OXmtWNKP">
    <mxGraphModel dx="1625" dy="872" grid="1" gridSize="10" guides="1" tooltips="1" connect="1" arrows="1" fold="1" page="1" pageScale="1" pageWidth="850" pageHeight="1100" math="0" shadow="0">
      <root>
        <mxCell id="0" />
        <mxCell id="1" parent="0" />
        <mxCell id="TKnIav-RQ8wravThj5IL-3" value="" style="ellipse;html=1;shape=startState;fillColor=#000000;strokeColor=#030000;shadow=0;" vertex="1" parent="1">
          <mxGeometry x="365" y="100" width="30" height="30" as="geometry" />
        </mxCell>
        <mxCell id="TKnIav-RQ8wravThj5IL-4" value="" style="edgeStyle=orthogonalEdgeStyle;html=1;verticalAlign=bottom;endArrow=open;endSize=8;strokeColor=#0D0000;rounded=0;entryX=0.5;entryY=0;entryDx=0;entryDy=0;" edge="1" source="TKnIav-RQ8wravThj5IL-3" parent="1" target="TKnIav-RQ8wravThj5IL-6">
          <mxGeometry relative="1" as="geometry">
            <mxPoint x="320" y="275" as="targetPoint" />
            <Array as="points" />
          </mxGeometry>
        </mxCell>
        <mxCell id="TKnIav-RQ8wravThj5IL-5" value="Session started" style="text;strokeColor=none;align=center;fillColor=none;html=1;verticalAlign=middle;whiteSpace=wrap;rounded=0;" vertex="1" parent="1">
          <mxGeometry x="320" y="160" width="60" height="30" as="geometry" />
        </mxCell>
        <mxCell id="TKnIav-RQ8wravThj5IL-6" value="Unauthorized" style="rounded=1;whiteSpace=wrap;html=1;" vertex="1" parent="1">
          <mxGeometry x="320" y="240" width="120" height="60" as="geometry" />
        </mxCell>
        <mxCell id="TKnIav-RQ8wravThj5IL-7" value="Authorized&lt;br&gt;Unsubscribed" style="rounded=1;whiteSpace=wrap;html=1;" vertex="1" parent="1">
          <mxGeometry x="200" y="430" width="120" height="60" as="geometry" />
        </mxCell>
        <mxCell id="TKnIav-RQ8wravThj5IL-8" value="Authorized&lt;br&gt;Subscribed" style="rounded=1;whiteSpace=wrap;html=1;" vertex="1" parent="1">
          <mxGeometry x="440" y="430" width="120" height="60" as="geometry" />
        </mxCell>
        <mxCell id="TKnIav-RQ8wravThj5IL-18" value="" style="endArrow=none;html=1;rounded=0;exitX=0.5;exitY=1;exitDx=0;exitDy=0;" edge="1" parent="1" source="TKnIav-RQ8wravThj5IL-6">
          <mxGeometry width="50" height="50" relative="1" as="geometry">
            <mxPoint x="390" y="470" as="sourcePoint" />
            <mxPoint x="380" y="350" as="targetPoint" />
          </mxGeometry>
        </mxCell>
        <mxCell id="TKnIav-RQ8wravThj5IL-19" value="" style="endArrow=none;html=1;rounded=0;" edge="1" parent="1">
          <mxGeometry width="50" height="50" relative="1" as="geometry">
            <mxPoint x="260" y="350" as="sourcePoint" />
            <mxPoint x="500" y="350" as="targetPoint" />
            <Array as="points">
              <mxPoint x="380" y="350" />
            </Array>
          </mxGeometry>
        </mxCell>
        <mxCell id="TKnIav-RQ8wravThj5IL-20" value="" style="endArrow=classic;html=1;rounded=0;entryX=0.5;entryY=0;entryDx=0;entryDy=0;" edge="1" parent="1" target="TKnIav-RQ8wravThj5IL-7">
          <mxGeometry width="50" height="50" relative="1" as="geometry">
            <mxPoint x="260" y="350" as="sourcePoint" />
            <mxPoint x="440" y="420" as="targetPoint" />
          </mxGeometry>
        </mxCell>
        <mxCell id="TKnIav-RQ8wravThj5IL-21" value="" style="endArrow=classic;html=1;rounded=0;entryX=0.5;entryY=0;entryDx=0;entryDy=0;" edge="1" parent="1" target="TKnIav-RQ8wravThj5IL-8">
          <mxGeometry width="50" height="50" relative="1" as="geometry">
            <mxPoint x="500" y="350" as="sourcePoint" />
            <mxPoint x="440" y="420" as="targetPoint" />
          </mxGeometry>
        </mxCell>
        <mxCell id="TKnIav-RQ8wravThj5IL-22" value="" style="endArrow=classic;html=1;rounded=0;exitX=1;exitY=0.5;exitDx=0;exitDy=0;entryX=0;entryY=0.5;entryDx=0;entryDy=0;" edge="1" parent="1" source="TKnIav-RQ8wravThj5IL-7" target="TKnIav-RQ8wravThj5IL-8">
          <mxGeometry width="50" height="50" relative="1" as="geometry">
            <mxPoint x="390" y="470" as="sourcePoint" />
            <mxPoint x="440" y="420" as="targetPoint" />
          </mxGeometry>
        </mxCell>
        <mxCell id="TKnIav-RQ8wravThj5IL-23" value="getSuibscription()" style="text;strokeColor=none;align=center;fillColor=none;html=1;verticalAlign=middle;whiteSpace=wrap;rounded=0;" vertex="1" parent="1">
          <mxGeometry x="350" y="430" width="60" height="30" as="geometry" />
        </mxCell>
        <mxCell id="TKnIav-RQ8wravThj5IL-34" value="" style="endArrow=none;html=1;rounded=0;exitX=1;exitY=0.5;exitDx=0;exitDy=0;" edge="1" parent="1" source="TKnIav-RQ8wravThj5IL-8">
          <mxGeometry width="50" height="50" relative="1" as="geometry">
            <mxPoint x="390" y="470" as="sourcePoint" />
            <mxPoint x="600" y="460" as="targetPoint" />
          </mxGeometry>
        </mxCell>
        <mxCell id="TKnIav-RQ8wravThj5IL-35" value="" style="endArrow=none;html=1;rounded=0;" edge="1" parent="1">
          <mxGeometry width="50" height="50" relative="1" as="geometry">
            <mxPoint x="600" y="460" as="sourcePoint" />
            <mxPoint x="600" y="270" as="targetPoint" />
          </mxGeometry>
        </mxCell>
        <mxCell id="TKnIav-RQ8wravThj5IL-36" value="" style="endArrow=classic;html=1;rounded=0;entryX=1;entryY=0.5;entryDx=0;entryDy=0;" edge="1" parent="1" target="TKnIav-RQ8wravThj5IL-6">
          <mxGeometry width="50" height="50" relative="1" as="geometry">
            <mxPoint x="600" y="270" as="sourcePoint" />
            <mxPoint x="440" y="420" as="targetPoint" />
            <Array as="points">
              <mxPoint x="590" y="270" />
              <mxPoint x="520" y="270" />
            </Array>
          </mxGeometry>
        </mxCell>
        <mxCell id="TKnIav-RQ8wravThj5IL-39" value="logout()" style="text;strokeColor=none;align=center;fillColor=none;html=1;verticalAlign=middle;whiteSpace=wrap;rounded=0;" vertex="1" parent="1">
          <mxGeometry x="100" y="320" width="60" height="80" as="geometry" />
        </mxCell>
        <mxCell id="TKnIav-RQ8wravThj5IL-40" value="logout()" style="text;strokeColor=none;align=center;fillColor=none;html=1;verticalAlign=middle;whiteSpace=wrap;rounded=0;" vertex="1" parent="1">
          <mxGeometry x="600" y="330" width="60" height="80" as="geometry" />
        </mxCell>
        <mxCell id="TKnIav-RQ8wravThj5IL-45" value="" style="endArrow=none;html=1;rounded=0;exitX=0;exitY=0.5;exitDx=0;exitDy=0;" edge="1" parent="1" source="TKnIav-RQ8wravThj5IL-7">
          <mxGeometry width="50" height="50" relative="1" as="geometry">
            <mxPoint x="390" y="470" as="sourcePoint" />
            <mxPoint x="160" y="460" as="targetPoint" />
          </mxGeometry>
        </mxCell>
        <mxCell id="TKnIav-RQ8wravThj5IL-46" value="" style="endArrow=none;html=1;rounded=0;" edge="1" parent="1">
          <mxGeometry width="50" height="50" relative="1" as="geometry">
            <mxPoint x="160" y="460" as="sourcePoint" />
            <mxPoint x="160" y="270" as="targetPoint" />
          </mxGeometry>
        </mxCell>
        <mxCell id="TKnIav-RQ8wravThj5IL-47" value="" style="endArrow=classic;html=1;rounded=0;entryX=0;entryY=0.5;entryDx=0;entryDy=0;" edge="1" parent="1" target="TKnIav-RQ8wravThj5IL-6">
          <mxGeometry width="50" height="50" relative="1" as="geometry">
            <mxPoint x="160" y="270" as="sourcePoint" />
            <mxPoint x="440" y="420" as="targetPoint" />
          </mxGeometry>
        </mxCell>
        <mxCell id="TKnIav-RQ8wravThj5IL-51" value="login()&lt;br&gt;[auth = true,&lt;br&gt;subscription = false]" style="text;strokeColor=none;align=center;fillColor=none;html=1;verticalAlign=middle;whiteSpace=wrap;rounded=0;" vertex="1" parent="1">
          <mxGeometry x="200" y="310" width="120" height="30" as="geometry" />
        </mxCell>
        <mxCell id="TKnIav-RQ8wravThj5IL-53" value="login()&lt;br&gt;[auth = true,&lt;br&gt;subscription = true]" style="text;strokeColor=none;align=center;fillColor=none;html=1;verticalAlign=middle;whiteSpace=wrap;rounded=0;" vertex="1" parent="1">
          <mxGeometry x="450" y="310" width="120" height="30" as="geometry" />
        </mxCell>
        <mxCell id="TKnIav-RQ8wravThj5IL-54" value="login()&lt;br&gt;[auth = false]" style="text;strokeColor=none;align=center;fillColor=none;html=1;verticalAlign=middle;whiteSpace=wrap;rounded=0;" vertex="1" parent="1">
          <mxGeometry x="440" y="180" width="120" height="30" as="geometry" />
        </mxCell>
        <mxCell id="TKnIav-RQ8wravThj5IL-58" value="" style="endArrow=none;html=1;rounded=0;" edge="1" parent="1">
          <mxGeometry width="50" height="50" relative="1" as="geometry">
            <mxPoint x="490" y="260" as="sourcePoint" />
            <mxPoint x="490" y="220" as="targetPoint" />
          </mxGeometry>
        </mxCell>
        <mxCell id="TKnIav-RQ8wravThj5IL-59" value="" style="endArrow=none;html=1;rounded=0;" edge="1" parent="1">
          <mxGeometry width="50" height="50" relative="1" as="geometry">
            <mxPoint x="490" y="260" as="sourcePoint" />
            <mxPoint x="440" y="260" as="targetPoint" />
          </mxGeometry>
        </mxCell>
        <mxCell id="TKnIav-RQ8wravThj5IL-60" value="" style="endArrow=none;html=1;rounded=0;" edge="1" parent="1">
          <mxGeometry width="50" height="50" relative="1" as="geometry">
            <mxPoint x="490" y="220" as="sourcePoint" />
            <mxPoint x="410" y="220" as="targetPoint" />
          </mxGeometry>
        </mxCell>
        <mxCell id="TKnIav-RQ8wravThj5IL-61" value="" style="endArrow=classic;html=1;rounded=0;entryX=0.75;entryY=0;entryDx=0;entryDy=0;" edge="1" parent="1" target="TKnIav-RQ8wravThj5IL-6">
          <mxGeometry width="50" height="50" relative="1" as="geometry">
            <mxPoint x="410" y="220" as="sourcePoint" />
            <mxPoint x="440" y="400" as="targetPoint" />
          </mxGeometry>
        </mxCell>
      </root>
    </mxGraphModel>
  </diagram>
  <diagram id="ieR6RPadmGs_Kc0Dy7yj" name="Page-2">
    <mxGraphModel dx="1625" dy="872" grid="1" gridSize="10" guides="1" tooltips="1" connect="1" arrows="1" fold="1" page="1" pageScale="1" pageWidth="850" pageHeight="1100" math="0" shadow="0">
      <root>
        <mxCell id="0" />
        <mxCell id="1" parent="0" />
        <mxCell id="WX8DIjI2fkrsbnrJSijY-1" value="" style="ellipse;html=1;shape=endState;fillColor=#000000;strokeColor=#190000;labelBorderColor=none;" vertex="1" parent="1">
          <mxGeometry x="410" y="720" width="30" height="30" as="geometry" />
        </mxCell>
        <mxCell id="eIWYmWhIEpaCUw3bLOax-1" value="" style="ellipse;html=1;shape=startState;fillColor=#000000;strokeColor=#030000;" vertex="1" parent="1">
          <mxGeometry x="410" y="80" width="30" height="30" as="geometry" />
        </mxCell>
        <mxCell id="eIWYmWhIEpaCUw3bLOax-2" value="" style="edgeStyle=orthogonalEdgeStyle;html=1;verticalAlign=bottom;endArrow=open;endSize=8;strokeColor=#030000;rounded=0;" edge="1" source="eIWYmWhIEpaCUw3bLOax-1" parent="1">
          <mxGeometry relative="1" as="geometry">
            <mxPoint x="425" y="200" as="targetPoint" />
          </mxGeometry>
        </mxCell>
        <mxCell id="vJro0qYx0Qi-G09P8LF6-1" value="Session started" style="text;strokeColor=none;align=center;fillColor=none;html=1;verticalAlign=middle;whiteSpace=wrap;rounded=0;" vertex="1" parent="1">
          <mxGeometry x="365" y="140" width="60" height="30" as="geometry" />
        </mxCell>
        <mxCell id="cpsJyfCEA3UV5l7JXQu7-1" value="Problem Not Viewed" style="rounded=1;whiteSpace=wrap;html=1;" vertex="1" parent="1">
          <mxGeometry x="365" y="200" width="120" height="60" as="geometry" />
        </mxCell>
        <mxCell id="cpsJyfCEA3UV5l7JXQu7-2" value="" style="endArrow=classic;html=1;rounded=0;exitX=0.5;exitY=1;exitDx=0;exitDy=0;" edge="1" parent="1" source="cpsJyfCEA3UV5l7JXQu7-1">
          <mxGeometry width="50" height="50" relative="1" as="geometry">
            <mxPoint x="400" y="400" as="sourcePoint" />
            <mxPoint x="425" y="350" as="targetPoint" />
          </mxGeometry>
        </mxCell>
        <mxCell id="cpsJyfCEA3UV5l7JXQu7-4" value="viewProblem(problem)" style="text;strokeColor=none;align=center;fillColor=none;html=1;verticalAlign=middle;whiteSpace=wrap;rounded=0;" vertex="1" parent="1">
          <mxGeometry x="330" y="290" width="60" height="30" as="geometry" />
        </mxCell>
        <mxCell id="cpsJyfCEA3UV5l7JXQu7-5" value="Problem Viewed" style="rounded=1;whiteSpace=wrap;html=1;" vertex="1" parent="1">
          <mxGeometry x="365" y="350" width="120" height="60" as="geometry" />
        </mxCell>
        <mxCell id="xm_ZtFt48Mo9n0q_Qct7-2" value="Problem Attempted" style="rounded=1;whiteSpace=wrap;html=1;" vertex="1" parent="1">
          <mxGeometry x="245" y="540" width="120" height="60" as="geometry" />
        </mxCell>
        <mxCell id="xm_ZtFt48Mo9n0q_Qct7-3" value="Problem Solved" style="rounded=1;whiteSpace=wrap;html=1;" vertex="1" parent="1">
          <mxGeometry x="485" y="540" width="120" height="60" as="geometry" />
        </mxCell>
        <mxCell id="xm_ZtFt48Mo9n0q_Qct7-4" value="" style="endArrow=none;html=1;rounded=0;exitX=0.5;exitY=1;exitDx=0;exitDy=0;" edge="1" parent="1">
          <mxGeometry width="50" height="50" relative="1" as="geometry">
            <mxPoint x="425" y="410" as="sourcePoint" />
            <mxPoint x="425" y="460" as="targetPoint" />
          </mxGeometry>
        </mxCell>
        <mxCell id="xm_ZtFt48Mo9n0q_Qct7-5" value="" style="endArrow=none;html=1;rounded=0;" edge="1" parent="1">
          <mxGeometry width="50" height="50" relative="1" as="geometry">
            <mxPoint x="305" y="460" as="sourcePoint" />
            <mxPoint x="545" y="460" as="targetPoint" />
            <Array as="points">
              <mxPoint x="425" y="460" />
            </Array>
          </mxGeometry>
        </mxCell>
        <mxCell id="xm_ZtFt48Mo9n0q_Qct7-6" value="" style="endArrow=classic;html=1;rounded=0;entryX=0.5;entryY=0;entryDx=0;entryDy=0;" edge="1" parent="1" target="xm_ZtFt48Mo9n0q_Qct7-2">
          <mxGeometry width="50" height="50" relative="1" as="geometry">
            <mxPoint x="305" y="460" as="sourcePoint" />
            <mxPoint x="485" y="530" as="targetPoint" />
          </mxGeometry>
        </mxCell>
        <mxCell id="xm_ZtFt48Mo9n0q_Qct7-7" value="" style="endArrow=classic;html=1;rounded=0;entryX=0.5;entryY=0;entryDx=0;entryDy=0;" edge="1" parent="1" target="xm_ZtFt48Mo9n0q_Qct7-3">
          <mxGeometry width="50" height="50" relative="1" as="geometry">
            <mxPoint x="545" y="460" as="sourcePoint" />
            <mxPoint x="485" y="530" as="targetPoint" />
          </mxGeometry>
        </mxCell>
        <mxCell id="xm_ZtFt48Mo9n0q_Qct7-8" value="" style="endArrow=classic;html=1;rounded=0;exitX=1;exitY=0.5;exitDx=0;exitDy=0;entryX=0;entryY=0.5;entryDx=0;entryDy=0;" edge="1" parent="1" source="xm_ZtFt48Mo9n0q_Qct7-2" target="xm_ZtFt48Mo9n0q_Qct7-3">
          <mxGeometry width="50" height="50" relative="1" as="geometry">
            <mxPoint x="435" y="580" as="sourcePoint" />
            <mxPoint x="485" y="530" as="targetPoint" />
          </mxGeometry>
        </mxCell>
        <mxCell id="xm_ZtFt48Mo9n0q_Qct7-14" value="" style="endArrow=none;html=1;rounded=0;exitX=0;exitY=0.5;exitDx=0;exitDy=0;" edge="1" parent="1" source="xm_ZtFt48Mo9n0q_Qct7-2">
          <mxGeometry width="50" height="50" relative="1" as="geometry">
            <mxPoint x="435" y="580" as="sourcePoint" />
            <mxPoint x="205" y="570" as="targetPoint" />
          </mxGeometry>
        </mxCell>
        <mxCell id="xm_ZtFt48Mo9n0q_Qct7-18" value="checkSolution()&lt;br&gt;[vrdict = accepted]" style="text;strokeColor=none;align=center;fillColor=none;html=1;verticalAlign=middle;whiteSpace=wrap;rounded=0;" vertex="1" parent="1">
          <mxGeometry x="495" y="420" width="120" height="30" as="geometry" />
        </mxCell>
        <mxCell id="xm_ZtFt48Mo9n0q_Qct7-22" value="checkSolution()&lt;br&gt;[vrdict = unaccepted]" style="text;strokeColor=none;align=center;fillColor=none;html=1;verticalAlign=middle;whiteSpace=wrap;rounded=0;" vertex="1" parent="1">
          <mxGeometry x="245" y="420" width="120" height="30" as="geometry" />
        </mxCell>
        <mxCell id="xm_ZtFt48Mo9n0q_Qct7-23" value="checkSolution()&lt;br&gt;[vrdict = accepted]" style="text;strokeColor=none;align=center;fillColor=none;html=1;verticalAlign=middle;whiteSpace=wrap;rounded=0;" vertex="1" parent="1">
          <mxGeometry x="365" y="535" width="120" height="30" as="geometry" />
        </mxCell>
        <mxCell id="xm_ZtFt48Mo9n0q_Qct7-24" value="" style="endArrow=none;html=1;rounded=0;" edge="1" parent="1">
          <mxGeometry width="50" height="50" relative="1" as="geometry">
            <mxPoint x="210" y="570" as="sourcePoint" />
            <mxPoint x="180" y="570" as="targetPoint" />
          </mxGeometry>
        </mxCell>
        <mxCell id="xm_ZtFt48Mo9n0q_Qct7-25" value="" style="endArrow=none;html=1;rounded=0;" edge="1" parent="1">
          <mxGeometry width="50" height="50" relative="1" as="geometry">
            <mxPoint x="180" y="570" as="sourcePoint" />
            <mxPoint x="180" y="650" as="targetPoint" />
          </mxGeometry>
        </mxCell>
        <mxCell id="xm_ZtFt48Mo9n0q_Qct7-26" value="" style="endArrow=none;html=1;rounded=0;" edge="1" parent="1">
          <mxGeometry width="50" height="50" relative="1" as="geometry">
            <mxPoint x="180" y="650" as="sourcePoint" />
            <mxPoint x="310" y="650" as="targetPoint" />
          </mxGeometry>
        </mxCell>
        <mxCell id="xm_ZtFt48Mo9n0q_Qct7-27" value="" style="endArrow=classic;html=1;rounded=0;entryX=0.542;entryY=1;entryDx=0;entryDy=0;entryPerimeter=0;" edge="1" parent="1" target="xm_ZtFt48Mo9n0q_Qct7-2">
          <mxGeometry width="50" height="50" relative="1" as="geometry">
            <mxPoint x="310" y="650" as="sourcePoint" />
            <mxPoint x="450" y="420" as="targetPoint" />
          </mxGeometry>
        </mxCell>
        <mxCell id="xm_ZtFt48Mo9n0q_Qct7-28" value="checkSolution()&lt;br&gt;[vrdict = unaccepted]" style="text;strokeColor=none;align=center;fillColor=none;html=1;verticalAlign=middle;whiteSpace=wrap;rounded=0;" vertex="1" parent="1">
          <mxGeometry x="90" y="530" width="120" height="30" as="geometry" />
        </mxCell>
        <mxCell id="xm_ZtFt48Mo9n0q_Qct7-29" value="" style="endArrow=none;html=1;rounded=0;exitX=0.5;exitY=1;exitDx=0;exitDy=0;" edge="1" parent="1" source="xm_ZtFt48Mo9n0q_Qct7-3">
          <mxGeometry width="50" height="50" relative="1" as="geometry">
            <mxPoint x="400" y="470" as="sourcePoint" />
            <mxPoint x="545" y="670" as="targetPoint" />
          </mxGeometry>
        </mxCell>
        <mxCell id="xm_ZtFt48Mo9n0q_Qct7-30" value="" style="endArrow=none;html=1;rounded=0;" edge="1" parent="1">
          <mxGeometry width="50" height="50" relative="1" as="geometry">
            <mxPoint x="425" y="670" as="sourcePoint" />
            <mxPoint x="545" y="670" as="targetPoint" />
          </mxGeometry>
        </mxCell>
        <mxCell id="xm_ZtFt48Mo9n0q_Qct7-32" value="" style="endArrow=classic;html=1;rounded=0;entryX=0.5;entryY=0;entryDx=0;entryDy=0;" edge="1" parent="1" target="WX8DIjI2fkrsbnrJSijY-1">
          <mxGeometry width="50" height="50" relative="1" as="geometry">
            <mxPoint x="425" y="670" as="sourcePoint" />
            <mxPoint x="450" y="420" as="targetPoint" />
          </mxGeometry>
        </mxCell>
      </root>
    </mxGraphModel>
  </diagram>
  <diagram id="gIyT8Ui3XByiPvMs7MVL" name="Page-3">
    <mxGraphModel dx="1625" dy="872" grid="1" gridSize="10" guides="1" tooltips="1" connect="1" arrows="1" fold="1" page="1" pageScale="1" pageWidth="850" pageHeight="1100" math="0" shadow="0">
      <root>
        <mxCell id="0" />
        <mxCell id="1" parent="0" />
        <mxCell id="_C-P2oFg78Hf3sfAsF6s-1" value="" style="ellipse;html=1;shape=endState;fillColor=#000000;strokeColor=#190000;labelBorderColor=none;" vertex="1" parent="1">
          <mxGeometry x="410" y="720" width="30" height="30" as="geometry" />
        </mxCell>
        <mxCell id="_C-P2oFg78Hf3sfAsF6s-2" value="" style="ellipse;html=1;shape=startState;fillColor=#000000;strokeColor=#030000;" vertex="1" parent="1">
          <mxGeometry x="410" y="80" width="30" height="30" as="geometry" />
        </mxCell>
        <mxCell id="_C-P2oFg78Hf3sfAsF6s-3" value="" style="edgeStyle=orthogonalEdgeStyle;html=1;verticalAlign=bottom;endArrow=open;endSize=8;strokeColor=#030000;rounded=0;" edge="1" parent="1" source="_C-P2oFg78Hf3sfAsF6s-2">
          <mxGeometry relative="1" as="geometry">
            <mxPoint x="425" y="200" as="targetPoint" />
          </mxGeometry>
        </mxCell>
        <mxCell id="_C-P2oFg78Hf3sfAsF6s-4" value="Session started" style="text;strokeColor=none;align=center;fillColor=none;html=1;verticalAlign=middle;whiteSpace=wrap;rounded=0;" vertex="1" parent="1">
          <mxGeometry x="365" y="140" width="60" height="30" as="geometry" />
        </mxCell>
        <mxCell id="_C-P2oFg78Hf3sfAsF6s-5" value="Problem Not Viewed" style="rounded=1;whiteSpace=wrap;html=1;" vertex="1" parent="1">
          <mxGeometry x="365" y="200" width="120" height="60" as="geometry" />
        </mxCell>
        <mxCell id="_C-P2oFg78Hf3sfAsF6s-6" value="" style="endArrow=classic;html=1;rounded=0;exitX=0.5;exitY=1;exitDx=0;exitDy=0;" edge="1" parent="1" source="_C-P2oFg78Hf3sfAsF6s-5">
          <mxGeometry width="50" height="50" relative="1" as="geometry">
            <mxPoint x="400" y="400" as="sourcePoint" />
            <mxPoint x="425" y="350" as="targetPoint" />
          </mxGeometry>
        </mxCell>
        <mxCell id="_C-P2oFg78Hf3sfAsF6s-7" value="viewLesson(lesson)" style="text;strokeColor=none;align=center;fillColor=none;html=1;verticalAlign=middle;whiteSpace=wrap;rounded=0;" vertex="1" parent="1">
          <mxGeometry x="340" y="290" width="60" height="30" as="geometry" />
        </mxCell>
        <mxCell id="_C-P2oFg78Hf3sfAsF6s-8" value="Problem Viewed" style="rounded=1;whiteSpace=wrap;html=1;" vertex="1" parent="1">
          <mxGeometry x="365" y="350" width="120" height="60" as="geometry" />
        </mxCell>
        <mxCell id="_C-P2oFg78Hf3sfAsF6s-9" value="Quiz Submitted" style="rounded=1;whiteSpace=wrap;html=1;" vertex="1" parent="1">
          <mxGeometry x="245" y="540" width="120" height="60" as="geometry" />
        </mxCell>
        <mxCell id="_C-P2oFg78Hf3sfAsF6s-10" value="Lesson Completed" style="rounded=1;whiteSpace=wrap;html=1;" vertex="1" parent="1">
          <mxGeometry x="485" y="540" width="120" height="60" as="geometry" />
        </mxCell>
        <mxCell id="_C-P2oFg78Hf3sfAsF6s-11" value="" style="endArrow=none;html=1;rounded=0;exitX=0.5;exitY=1;exitDx=0;exitDy=0;" edge="1" parent="1">
          <mxGeometry width="50" height="50" relative="1" as="geometry">
            <mxPoint x="425" y="410" as="sourcePoint" />
            <mxPoint x="425" y="460" as="targetPoint" />
          </mxGeometry>
        </mxCell>
        <mxCell id="_C-P2oFg78Hf3sfAsF6s-12" value="" style="endArrow=none;html=1;rounded=0;" edge="1" parent="1">
          <mxGeometry width="50" height="50" relative="1" as="geometry">
            <mxPoint x="305" y="460" as="sourcePoint" />
            <mxPoint x="545" y="460" as="targetPoint" />
            <Array as="points">
              <mxPoint x="425" y="460" />
            </Array>
          </mxGeometry>
        </mxCell>
        <mxCell id="_C-P2oFg78Hf3sfAsF6s-13" value="" style="endArrow=classic;html=1;rounded=0;entryX=0.5;entryY=0;entryDx=0;entryDy=0;" edge="1" parent="1" target="_C-P2oFg78Hf3sfAsF6s-9">
          <mxGeometry width="50" height="50" relative="1" as="geometry">
            <mxPoint x="305" y="460" as="sourcePoint" />
            <mxPoint x="485" y="530" as="targetPoint" />
          </mxGeometry>
        </mxCell>
        <mxCell id="_C-P2oFg78Hf3sfAsF6s-14" value="" style="endArrow=classic;html=1;rounded=0;entryX=0.5;entryY=0;entryDx=0;entryDy=0;" edge="1" parent="1" target="_C-P2oFg78Hf3sfAsF6s-10">
          <mxGeometry width="50" height="50" relative="1" as="geometry">
            <mxPoint x="545" y="460" as="sourcePoint" />
            <mxPoint x="485" y="530" as="targetPoint" />
          </mxGeometry>
        </mxCell>
        <mxCell id="_C-P2oFg78Hf3sfAsF6s-15" value="" style="endArrow=classic;html=1;rounded=0;exitX=1;exitY=0.5;exitDx=0;exitDy=0;entryX=0;entryY=0.5;entryDx=0;entryDy=0;" edge="1" parent="1" source="_C-P2oFg78Hf3sfAsF6s-9" target="_C-P2oFg78Hf3sfAsF6s-10">
          <mxGeometry width="50" height="50" relative="1" as="geometry">
            <mxPoint x="435" y="580" as="sourcePoint" />
            <mxPoint x="485" y="530" as="targetPoint" />
          </mxGeometry>
        </mxCell>
        <mxCell id="_C-P2oFg78Hf3sfAsF6s-16" value="" style="endArrow=none;html=1;rounded=0;exitX=0;exitY=0.5;exitDx=0;exitDy=0;" edge="1" parent="1" source="_C-P2oFg78Hf3sfAsF6s-9">
          <mxGeometry width="50" height="50" relative="1" as="geometry">
            <mxPoint x="435" y="580" as="sourcePoint" />
            <mxPoint x="205" y="570" as="targetPoint" />
          </mxGeometry>
        </mxCell>
        <mxCell id="_C-P2oFg78Hf3sfAsF6s-18" value="submitQuiz()&lt;br&gt;[quiz = attempted]" style="text;strokeColor=none;align=center;fillColor=none;html=1;verticalAlign=middle;whiteSpace=wrap;rounded=0;" vertex="1" parent="1">
          <mxGeometry x="245" y="420" width="120" height="30" as="geometry" />
        </mxCell>
        <mxCell id="_C-P2oFg78Hf3sfAsF6s-19" value="assessQuiz()&lt;br&gt;[assesment = accepted]" style="text;strokeColor=none;align=center;fillColor=none;html=1;verticalAlign=middle;whiteSpace=wrap;rounded=0;" vertex="1" parent="1">
          <mxGeometry x="365" y="520" width="120" height="30" as="geometry" />
        </mxCell>
        <mxCell id="_C-P2oFg78Hf3sfAsF6s-20" value="" style="endArrow=none;html=1;rounded=0;" edge="1" parent="1">
          <mxGeometry width="50" height="50" relative="1" as="geometry">
            <mxPoint x="210" y="570" as="sourcePoint" />
            <mxPoint x="180" y="570" as="targetPoint" />
          </mxGeometry>
        </mxCell>
        <mxCell id="_C-P2oFg78Hf3sfAsF6s-24" value="" style="endArrow=none;html=1;rounded=0;exitX=0.5;exitY=1;exitDx=0;exitDy=0;" edge="1" parent="1" source="_C-P2oFg78Hf3sfAsF6s-10">
          <mxGeometry width="50" height="50" relative="1" as="geometry">
            <mxPoint x="400" y="470" as="sourcePoint" />
            <mxPoint x="545" y="670" as="targetPoint" />
          </mxGeometry>
        </mxCell>
        <mxCell id="_C-P2oFg78Hf3sfAsF6s-25" value="" style="endArrow=none;html=1;rounded=0;" edge="1" parent="1">
          <mxGeometry width="50" height="50" relative="1" as="geometry">
            <mxPoint x="425" y="670" as="sourcePoint" />
            <mxPoint x="545" y="670" as="targetPoint" />
          </mxGeometry>
        </mxCell>
        <mxCell id="_C-P2oFg78Hf3sfAsF6s-26" value="" style="endArrow=classic;html=1;rounded=0;entryX=0.5;entryY=0;entryDx=0;entryDy=0;" edge="1" parent="1" target="_C-P2oFg78Hf3sfAsF6s-1">
          <mxGeometry width="50" height="50" relative="1" as="geometry">
            <mxPoint x="425" y="670" as="sourcePoint" />
            <mxPoint x="450" y="420" as="targetPoint" />
          </mxGeometry>
        </mxCell>
        <mxCell id="_C-P2oFg78Hf3sfAsF6s-27" value="submitQuiz()&lt;br&gt;[quiz = unattempted]" style="text;strokeColor=none;align=center;fillColor=none;html=1;verticalAlign=middle;whiteSpace=wrap;rounded=0;" vertex="1" parent="1">
          <mxGeometry x="500" y="420" width="120" height="30" as="geometry" />
        </mxCell>
        <mxCell id="_C-P2oFg78Hf3sfAsF6s-28" value="assessQuiz()&lt;br&gt;[assesment = accepted]" style="text;strokeColor=none;align=center;fillColor=none;html=1;verticalAlign=middle;whiteSpace=wrap;rounded=0;" vertex="1" parent="1">
          <mxGeometry x="110" y="330" width="120" height="45" as="geometry" />
        </mxCell>
        <mxCell id="_C-P2oFg78Hf3sfAsF6s-29" value="" style="endArrow=none;html=1;rounded=0;" edge="1" parent="1">
          <mxGeometry width="50" height="50" relative="1" as="geometry">
            <mxPoint x="180" y="570" as="sourcePoint" />
            <mxPoint x="180" y="380" as="targetPoint" />
          </mxGeometry>
        </mxCell>
        <mxCell id="_C-P2oFg78Hf3sfAsF6s-30" value="" style="endArrow=classic;html=1;rounded=0;" edge="1" parent="1">
          <mxGeometry width="50" height="50" relative="1" as="geometry">
            <mxPoint x="180" y="380" as="sourcePoint" />
            <mxPoint x="360" y="380" as="targetPoint" />
          </mxGeometry>
        </mxCell>
      </root>
    </mxGraphModel>
  </diagram>
</mxfile>
